<svg xmlns="http://www.w3.org/2000/svg" width="900" height="360" viewBox="0 0 900 360">
  <rect width="100%" height="100%" rx="18" fill="#fff7ed" />
  <text x="30" y="34" font-size="22" font-weight="700" fill="#111827">HA Validation Indices</text>
  <text x="30" y="82" font-size="14" fill="#111827">HA confidence</text><rect x="260" y="60" width="560" height="26" rx="13" fill="#e5e7eb" /><rect x="260" y="60" width="554" height="26" rx="13" fill="#16a34a" /><text x="835" y="80" font-size="14" font-weight="700" fill="#111827">99</text><text x="30" y="130" font-size="14" fill="#111827">Anti-affinity placement</text><rect x="260" y="108" width="560" height="26" rx="13" fill="#e5e7eb" /><rect x="260" y="108" width="560" height="26" rx="13" fill="#16a34a" /><text x="835" y="128" font-size="14" font-weight="700" fill="#111827">100</text><text x="30" y="178" font-size="14" fill="#111827">Epoch fencing</text><rect x="260" y="156" width="560" height="26" rx="13" fill="#e5e7eb" /><rect x="260" y="156" width="560" height="26" rx="13" fill="#16a34a" /><text x="835" y="176" font-size="14" font-weight="700" fill="#111827">100</text><text x="30" y="226" font-size="14" fill="#111827">Outbox reroute</text><rect x="260" y="204" width="560" height="26" rx="13" fill="#e5e7eb" /><rect x="260" y="204" width="560" height="26" rx="13" fill="#16a34a" /><text x="835" y="224" font-size="14" font-weight="700" fill="#111827">100</text><text x="30" y="274" font-size="14" fill="#111827">Service LB distribution</text><rect x="260" y="252" width="560" height="26" rx="13" fill="#e5e7eb" /><rect x="260" y="252" width="526" height="26" rx="13" fill="#16a34a" /><text x="835" y="272" font-size="14" font-weight="700" fill="#111827">94</text><text x="30" y="322" font-size="14" fill="#111827">Evidence completeness</text><rect x="260" y="300" width="560" height="26" rx="13" fill="#e5e7eb" /><rect x="260" y="300" width="560" height="26" rx="13" fill="#16a34a" /><text x="835" y="320" font-size="14" font-weight="700" fill="#111827">100</text>
</svg>
