<svg xmlns="http://www.w3.org/2000/svg" viewBox="0 0 1280 760" role="img" aria-labelledby="title desc">
<title id="title">Jobs management</title><desc id="desc">Illustrated Tikeo console screenshot for Jobs management.</desc>
<defs><linearGradient id="bg" x1="0" y1="0" x2="1" y2="1"><stop stop-color="#0f172a"/><stop offset="1" stop-color="#1e293b"/></linearGradient><linearGradient id="panel" x1="0" y1="0" x2="1" y2="1"><stop stop-color="#ffffff"/><stop offset="1" stop-color="#f8fafc"/></linearGradient><linearGradient id="accent" x1="0" y1="0" x2="1" y2="1"><stop stop-color="#2563eb"/><stop offset="1" stop-color="#0ea5e9"/></linearGradient></defs>
<rect width="1280" height="760" rx="40" fill="url(#bg)"/>
<rect x="42" y="42" width="1196" height="676" rx="30" fill="#f8fafc"/>
<rect x="42" y="42" width="238" height="676" rx="30" fill="#0f172a"/>
<text x="84" y="104" font-family="Inter, system-ui, sans-serif" font-size="28" font-weight="900" fill="#fff">Tikeo</text>
<circle cx="222" cy="93" r="18" fill="#22c55e" opacity="0.9"/>
<text x="86" y="160" font-family="Inter, system-ui, sans-serif" font-size="15" fill="#93c5fd">Console</text>
<rect x="70" y="181" width="170" height="34" rx="12" fill="#1e293b" opacity="0.72"/><text x="92" y="205" font-family="Inter, system-ui, sans-serif" font-size="14" font-weight="700" fill="#e2e8f0">Dashboard</text>
<rect x="70" y="229" width="170" height="34" rx="12" fill="#2563eb" opacity="1"/><text x="92" y="253" font-family="Inter, system-ui, sans-serif" font-size="14" font-weight="700" fill="#e2e8f0">Jobs</text>
<rect x="70" y="277" width="170" height="34" rx="12" fill="#1e293b" opacity="0.72"/><text x="92" y="301" font-family="Inter, system-ui, sans-serif" font-size="14" font-weight="700" fill="#e2e8f0">Instances</text>
<rect x="70" y="325" width="170" height="34" rx="12" fill="#1e293b" opacity="0.72"/><text x="92" y="349" font-family="Inter, system-ui, sans-serif" font-size="14" font-weight="700" fill="#e2e8f0">Workers</text>
<rect x="70" y="373" width="170" height="34" rx="12" fill="#1e293b" opacity="0.72"/><text x="92" y="397" font-family="Inter, system-ui, sans-serif" font-size="14" font-weight="700" fill="#e2e8f0">Workflows</text>
<rect x="70" y="421" width="170" height="34" rx="12" fill="#1e293b" opacity="0.72"/><text x="92" y="445" font-family="Inter, system-ui, sans-serif" font-size="14" font-weight="700" fill="#e2e8f0">Notify</text>
<rect x="70" y="469" width="170" height="34" rx="12" fill="#1e293b" opacity="0.72"/><text x="92" y="493" font-family="Inter, system-ui, sans-serif" font-size="14" font-weight="700" fill="#e2e8f0">Audit</text>
<rect x="70" y="517" width="170" height="34" rx="12" fill="#1e293b" opacity="0.72"/><text x="92" y="541" font-family="Inter, system-ui, sans-serif" font-size="14" font-weight="700" fill="#e2e8f0">Settings</text>
<text x="330" y="104" font-family="Inter, system-ui, sans-serif" font-size="32" font-weight="900" fill="#0f172a">Jobs management</text><text x="330" y="138" font-family="Inter, system-ui, sans-serif" font-size="16" fill="#64748b">Human operator view: decide, act, verify, and export evidence.</text>
<rect x="330" y="188" width="360" height="118" rx="22" fill="url(#panel)" stroke="#dbeafe"/><rect x="354" y="212" width="58" height="58" rx="18" fill="url(#accent)"/><text x="434" y="236" font-family="Inter, system-ui, sans-serif" font-size="19" font-weight="850" fill="#0f172a">Create job</text><text x="434" y="266" font-family="Inter, system-ui, sans-serif" font-size="14" fill="#64748b">Open → inspect → change → verify</text>
<rect x="740" y="188" width="360" height="118" rx="22" fill="url(#panel)" stroke="#dbeafe"/><rect x="764" y="212" width="58" height="58" rx="18" fill="url(#accent)"/><text x="844" y="236" font-family="Inter, system-ui, sans-serif" font-size="19" font-weight="850" fill="#0f172a">Version history</text><text x="844" y="266" font-family="Inter, system-ui, sans-serif" font-size="14" fill="#64748b">Open → inspect → change → verify</text>
<rect x="330" y="348" width="360" height="118" rx="22" fill="url(#panel)" stroke="#dbeafe"/><rect x="354" y="372" width="58" height="58" rx="18" fill="url(#accent)"/><text x="434" y="396" font-family="Inter, system-ui, sans-serif" font-size="19" font-weight="850" fill="#0f172a">Trigger single/broadcast</text><text x="434" y="426" font-family="Inter, system-ui, sans-serif" font-size="14" fill="#64748b">Open → inspect → change → verify</text>
<rect x="740" y="348" width="360" height="118" rx="22" fill="url(#panel)" stroke="#dbeafe"/><rect x="764" y="372" width="58" height="58" rx="18" fill="url(#accent)"/><text x="844" y="396" font-family="Inter, system-ui, sans-serif" font-size="19" font-weight="850" fill="#0f172a">Scheduling advice</text><text x="844" y="426" font-family="Inter, system-ui, sans-serif" font-size="14" fill="#64748b">Open → inspect → change → verify</text>
<rect x="330" y="535" width="810" height="128" rx="22" fill="#ffffff" stroke="#dbeafe"/><text x="360" y="576" font-family="Inter, system-ui, sans-serif" font-size="17" font-weight="800" fill="#0f172a">Evidence strip</text>
<text x="360" y="618" font-family="Inter, system-ui, sans-serif" font-size="13" font-weight="800" fill="#2563eb">ID</text><rect x="360" y="632" width="105" height="12" rx="6" fill="#dbeafe"/>
<text x="510" y="618" font-family="Inter, system-ui, sans-serif" font-size="13" font-weight="800" fill="#2563eb">Time</text><rect x="510" y="632" width="105" height="12" rx="6" fill="#dbeafe"/>
<text x="660" y="618" font-family="Inter, system-ui, sans-serif" font-size="13" font-weight="800" fill="#2563eb">Status</text><rect x="660" y="632" width="105" height="12" rx="6" fill="#dbeafe"/>
<text x="810" y="618" font-family="Inter, system-ui, sans-serif" font-size="13" font-weight="800" fill="#2563eb">Operator</text><rect x="810" y="632" width="105" height="12" rx="6" fill="#dbeafe"/>
<text x="960" y="618" font-family="Inter, system-ui, sans-serif" font-size="13" font-weight="800" fill="#2563eb">Delivery</text><rect x="960" y="632" width="105" height="12" rx="6" fill="#dbeafe"/>
</svg>
