<svg width="1560" height="1040" viewBox="0 0 1560 1040" fill="none" xmlns="http://www.w3.org/2000/svg" role="img" aria-labelledby="title desc">
  <title id="title">Tikeo complete cloud-native orchestration architecture</title>
  <desc id="desc">A complete logical architecture diagram for Tikeo showing user and automation entrypoints, the Rust server cluster with Raft and fencing, scheduling and governance modules, storage engines, observability, outbound gRPC worker tunnel, cross-language worker fleets, sandbox runtimes, and deployment surfaces.</desc>
  <defs>
    <linearGradient id="bg" x1="0" y1="0" x2="1560" y2="1040" gradientUnits="userSpaceOnUse">
      <stop stop-color="#ffffff"/>
      <stop offset="0.48" stop-color="#ffffff"/>
      <stop offset="1" stop-color="#ffffff"/>
    </linearGradient>
    <linearGradient id="serverGrad" x1="515" y1="185" x2="1045" y2="642" gradientUnits="userSpaceOnUse">
      <stop stop-color="#0f172a"/>
      <stop offset="0.48" stop-color="#1d4ed8"/>
      <stop offset="1" stop-color="#7c3aed"/>
    </linearGradient>
    <linearGradient id="workerGrad" x1="90" y1="692" x2="1470" y2="955" gradientUnits="userSpaceOnUse">
      <stop stop-color="#ffffff"/>
      <stop offset="0.52" stop-color="#ffffff"/>
      <stop offset="1" stop-color="#ffffff"/>
    </linearGradient>
    <linearGradient id="tunnelGrad" x1="250" y1="650" x2="1310" y2="646" gradientUnits="userSpaceOnUse">
      <stop stop-color="#2563eb"/>
      <stop offset="0.5" stop-color="#0891b2"/>
      <stop offset="1" stop-color="#7c3aed"/>
    </linearGradient>
    <marker id="arrowBlue" markerWidth="13" markerHeight="13" refX="10" refY="6.5" orient="auto" markerUnits="strokeWidth">
      <path d="M2 2L10 6.5L2 11" stroke="#2563eb" stroke-width="2.4" stroke-linecap="round" stroke-linejoin="round"/>
    </marker>
    <marker id="arrowCyan" markerWidth="13" markerHeight="13" refX="10" refY="6.5" orient="auto" markerUnits="strokeWidth">
      <path d="M2 2L10 6.5L2 11" stroke="#0891b2" stroke-width="2.4" stroke-linecap="round" stroke-linejoin="round"/>
    </marker>
    <marker id="arrowViolet" markerWidth="13" markerHeight="13" refX="10" refY="6.5" orient="auto" markerUnits="strokeWidth">
      <path d="M2 2L10 6.5L2 11" stroke="#7c3aed" stroke-width="2.4" stroke-linecap="round" stroke-linejoin="round"/>
    </marker>
    <marker id="arrowWhite" markerWidth="13" markerHeight="13" refX="10" refY="6.5" orient="auto" markerUnits="strokeWidth">
      <path d="M2 2L10 6.5L2 11" stroke="#f8fafc" stroke-width="2.4" stroke-linecap="round" stroke-linejoin="round"/>
    </marker>
    <style>
      .title{font:800 34px ui-sans-serif,system-ui,-apple-system,BlinkMacSystemFont,"Segoe UI",sans-serif;fill:#0f172a}
      .subtitle{font:550 16px ui-sans-serif,system-ui,-apple-system,BlinkMacSystemFont,"Segoe UI",sans-serif;fill:#475569}
      .section{font:800 18px ui-sans-serif,system-ui,-apple-system,BlinkMacSystemFont,"Segoe UI",sans-serif;fill:#0f172a}
      .label{font:760 15px ui-sans-serif,system-ui,-apple-system,BlinkMacSystemFont,"Segoe UI",sans-serif;fill:#0f172a}
      .small{font:600 12.5px ui-sans-serif,system-ui,-apple-system,BlinkMacSystemFont,"Segoe UI",sans-serif;fill:#475569}
      .tiny{font:650 10.5px ui-sans-serif,system-ui,-apple-system,BlinkMacSystemFont,"Segoe UI",sans-serif;fill:#64748b;letter-spacing:.01em}
      .mono{font:700 11.5px ui-monospace,SFMono-Regular,Menlo,Monaco,Consolas,"Liberation Mono",monospace;fill:#334155}
      .white{fill:#fff}.white2{fill:#dbeafe}.white3{fill:#c4b5fd}
      .pillText{font:750 11px ui-sans-serif,system-ui,-apple-system,BlinkMacSystemFont,"Segoe UI",sans-serif;fill:#0f172a}
      .solidBlue{stroke:#2563eb;stroke-width:3;stroke-linecap:round;marker-end:url(#arrowBlue)}
      .solidCyan{stroke:#0891b2;stroke-width:3;stroke-linecap:round;marker-end:url(#arrowCyan)}
      .solidViolet{stroke:#7c3aed;stroke-width:3;stroke-linecap:round;marker-end:url(#arrowViolet)}
      .solidWhite{stroke:#f8fafc;stroke-width:3;stroke-linecap:round;marker-end:url(#arrowWhite)}
      .dashBlue{stroke:#2563eb;stroke-width:3;stroke-linecap:round;stroke-dasharray:8 8;marker-end:url(#arrowBlue)}
      .dashCyan{stroke:#0891b2;stroke-width:3;stroke-linecap:round;stroke-dasharray:8 8;marker-end:url(#arrowCyan)}
      .thin{stroke:#cbd5e1;stroke-width:1.2}
      @media (prefers-color-scheme: dark){
        .title,.section,.label{fill:#f8fafc}.subtitle,.small{fill:#cbd5e1}.tiny{fill:#94a3b8}.mono{fill:#cbd5e1}.pillText{fill:#e2e8f0}
      }
    </style>
  </defs>

  <rect width="1560" height="1040" rx="36" fill="url(#bg)"/>
  <rect x="46" y="42" width="1468" height="956" rx="32" fill="#ffffff" stroke="#93c5fd" stroke-width="2"/>

  <text x="82" y="92" class="title">Tikeo complete architecture</text>
  <text x="82" y="122" class="subtitle">Cloud-native task orchestration with Raft ownership, outbound Worker Tunnel, typed capabilities, governed sandboxes, multi-DB storage, and evidence-first operations.</text>

  <!-- Entry points -->
  <g>
    <rect x="82" y="156" width="340" height="178" rx="24" fill="#ffffff" stroke="#2563eb" stroke-width="2.6"/>
    <rect x="82" y="156" width="340" height="50" rx="24" fill="#dbeafe"/>
    <rect x="82" y="180" width="340" height="26" fill="#dbeafe"/>
    <text x="112" y="194" class="section">Entrypoints</text>
    <rect x="112" y="218" width="276" height="30" rx="15" fill="#ffffff" stroke="#93c5fd"/>
    <text x="130" y="238" class="small">Web Console · workflow canvas · topology</text>
    <rect x="112" y="258" width="276" height="30" rx="15" fill="#ffffff" stroke="#93c5fd"/>
    <text x="130" y="278" class="small">REST / OpenAPI · API-Key · RBAC</text>
    <rect x="112" y="298" width="276" height="30" rx="15" fill="#ffffff" stroke="#93c5fd"/>
    <text x="130" y="318" class="small">CLI / SDK management clients</text>
  </g>

  <g>
    <rect x="82" y="372" width="340" height="198" rx="24" fill="#ffffff" stroke="#7c3aed" stroke-width="2.6"/>
    <rect x="82" y="372" width="340" height="50" rx="24" fill="#ede9fe"/>
    <rect x="82" y="396" width="340" height="26" fill="#ede9fe"/>
    <text x="112" y="410" class="section">Deployment &amp; IaC</text>
    <text x="112" y="438" class="small">Production surfaces are maintained together.</text>
    <g>
      <rect x="112" y="460" width="84" height="28" rx="14" fill="#dbeafe"/><text x="132" y="479" class="pillText">Docker</text>
      <rect x="206" y="460" width="92" height="28" rx="14" fill="#dbeafe"/><text x="224" y="479" class="pillText">Compose</text>
      <rect x="308" y="460" width="74" height="28" rx="14" fill="#dbeafe"/><text x="329" y="479" class="pillText">Helm</text>
      <rect x="112" y="498" width="102" height="28" rx="14" fill="#ede9fe"/><text x="130" y="517" class="pillText">K8s CRD</text>
      <rect x="224" y="498" width="108" height="28" rx="14" fill="#ede9fe"/><text x="242" y="517" class="pillText">Operator</text>
      <rect x="112" y="536" width="118" height="28" rx="14" fill="#cffafe"/><text x="130" y="555" class="pillText">Terraform</text>
      <rect x="240" y="536" width="88" height="28" rx="14" fill="#cffafe"/><text x="260" y="555" class="pillText">GitOps</text>
    </g>
  </g>

  <!-- Server cluster -->
  <g>
    <rect x="470" y="150" width="660" height="500" rx="32" fill="url(#serverGrad)"/>
    <text x="506" y="196" class="section white">Tikeo Rust Server Cluster</text>
    <text x="506" y="222" class="small white2">Single native binary per node · HTTP management API · Worker Tunnel listener · scheduler control plane</text>

    <g>
      <rect x="506" y="248" width="164" height="64" rx="18" fill="#3453a6" stroke="#93c5fd"/>
      <text x="528" y="273" class="label white">Node A</text>
      <text x="528" y="295" class="tiny white2">leader candidate</text>
      <rect x="718" y="248" width="164" height="64" rx="18" fill="#3453a6" stroke="#93c5fd"/>
      <text x="740" y="273" class="label white">Node B</text>
      <text x="740" y="295" class="tiny white2">follower</text>
      <rect x="930" y="248" width="164" height="64" rx="18" fill="#3453a6" stroke="#93c5fd"/>
      <text x="952" y="273" class="label white">Node C</text>
      <text x="952" y="295" class="tiny white2">follower</text>
      <path d="M670 280C690 280 700 280 718 280" class="solidWhite"/>
      <path d="M882 280C902 280 910 280 930 280" class="solidWhite"/>
    </g>

    <rect x="506" y="338" width="528" height="58" rx="18" fill="#1e3a8a" stroke="#93c5fd"/>
    <text x="530" y="362" class="label white">Raft scheduling ownership · fencing token</text>
    <text x="530" y="382" class="tiny white2">No global DB scheduling lock</text>

    <g>
      <rect x="506" y="414" width="172" height="82" rx="18" fill="#405bd0" stroke="#a5b4fc"/>
      <text x="528" y="440" class="label white">Scheduler</text>
      <text x="528" y="461" class="tiny white2">cron · fixed · API</text>
      <text x="528" y="480" class="tiny white2">retry · misfire · queues</text>

      <rect x="698" y="414" width="172" height="82" rx="18" fill="#405bd0" stroke="#a5b4fc"/>
      <text x="720" y="440" class="label white">Workflow Engine</text>
      <text x="720" y="461" class="tiny white2">DAG · topology</text>
      <text x="720" y="480" class="tiny white2">impact · replay bundle</text>

      <rect x="890" y="414" width="184" height="82" rx="18" fill="#405bd0" stroke="#a5b4fc"/>
      <text x="912" y="440" class="label white">Governance</text>
      <text x="912" y="461" class="tiny white2">owner · RBAC · API keys</text>
      <text x="912" y="480" class="tiny white2">tenant scope · audit</text>

      <rect x="506" y="520" width="172" height="82" rx="18" fill="#405bd0" stroke="#a5b4fc"/>
      <text x="528" y="546" class="label white">Worker Registry</text>
      <text x="528" y="567" class="tiny white2">identity · sessions</text>
      <text x="528" y="586" class="tiny white2">domain master election</text>

      <rect x="698" y="520" width="172" height="82" rx="18" fill="#405bd0" stroke="#a5b4fc"/>
      <text x="720" y="546" class="label white">Script / Plugin</text>
      <text x="720" y="567" class="tiny white2">versions · digest</text>
      <text x="720" y="586" class="tiny white2">policy · grants · routing</text>

      <rect x="890" y="520" width="184" height="82" rx="18" fill="#405bd0" stroke="#a5b4fc"/>
      <text x="912" y="546" class="label white">Log Stream</text>
      <text x="912" y="567" class="tiny white2">task logs · attempts</text>
      <text x="912" y="586" class="tiny white2">broadcast grouping</text>
    </g>
  </g>

  <path d="M422 245C446 245 446 245 470 245" class="solidBlue"/>
  <path d="M422 468C452 468 452 468 470 468" class="solidViolet"/>

  <!-- Right side integrations -->
  <g>
    <rect x="1186" y="156" width="326" height="198" rx="24" fill="#ffffff" stroke="#0891b2" stroke-width="2.6"/>
    <rect x="1186" y="156" width="326" height="50" rx="24" fill="#cffafe"/>
    <rect x="1186" y="180" width="326" height="26" fill="#cffafe"/>
    <text x="1216" y="194" class="section">Observability</text>
    <text x="1216" y="222" class="small">Evidence-first operations.</text>
    <rect x="1216" y="246" width="246" height="30" rx="15" fill="#ffffff" stroke="#22d3ee"/>
    <text x="1234" y="266" class="small">OpenTelemetry traces</text>
    <rect x="1216" y="286" width="246" height="30" rx="15" fill="#ffffff" stroke="#22d3ee"/>
    <text x="1234" y="306" class="small">metrics · terminal task logs</text>
    <rect x="1216" y="326" width="246" height="30" rx="15" fill="#ffffff" stroke="#22d3ee"/>
    <text x="1234" y="346" class="small">audit · replay · GitOps diff</text>
  </g>

  <g>
    <rect x="1186" y="392" width="326" height="178" rx="24" fill="#ffffff" stroke="#7c3aed" stroke-width="2.6"/>
    <rect x="1186" y="392" width="326" height="50" rx="24" fill="#ede9fe"/>
    <rect x="1186" y="416" width="326" height="26" fill="#ede9fe"/>
    <text x="1216" y="430" class="section">Management APIs</text>
    <text x="1216" y="458" class="small">Typed CRUD, RBAC, and automation.</text>
    <rect x="1216" y="482" width="248" height="30" rx="15" fill="#ffffff" stroke="#a78bfa"/>
    <text x="1234" y="502" class="small">Jobs · workflows · scripts · plugins</text>
    <rect x="1216" y="522" width="248" height="30" rx="15" fill="#ffffff" stroke="#a78bfa"/>
    <text x="1234" y="542" class="small">Users · roles · tenants · secrets</text>
  </g>

  <path d="M1130 290C1160 290 1160 255 1186 255" class="solidCyan"/>
  <path d="M1130 455C1160 455 1160 482 1186 482" class="solidViolet"/>

  <!-- Storage -->
  <g>
    <rect x="470" y="690" width="660" height="114" rx="26" fill="#ffffff" stroke="#475569" stroke-width="2.6"/>
    <rect x="470" y="690" width="660" height="46" rx="26" fill="#e2e8f0"/>
    <rect x="470" y="710" width="660" height="26" fill="#e2e8f0"/>
    <text x="506" y="730" class="section">Durable storage</text>
    <text x="506" y="757" class="small">Jobs · instances · attempts · task logs · audit · script versions · worker sessions · raft records</text>
    <g>
      <rect x="506" y="774" width="116" height="28" rx="14" fill="#e2e8f0"/><text x="538" y="793" class="pillText">SQLite</text>
      <rect x="636" y="774" width="142" height="28" rx="14" fill="#dbeafe"/><text x="658" y="793" class="pillText">PostgreSQL</text>
      <rect x="792" y="774" width="104" height="28" rx="14" fill="#cffafe"/><text x="824" y="793" class="pillText">MySQL</text>
      <rect x="910" y="774" width="158" height="28" rx="14" fill="#ede9fe"/><text x="932" y="793" class="pillText">migration smoke</text>
    </g>
  </g>
  <path d="M780 650V690" class="solidBlue"/>

  <!-- Tunnel -->
  <g>
    <rect x="188" y="622" width="1184" height="56" rx="28" fill="url(#tunnelGrad)"/>
    <text x="258" y="657" class="label white">Outbound gRPC / HTTP2 Worker Tunnel</text>
    <text x="610" y="657" class="small white2">workers dial out · no business Worker inbound ports · assignment token · task logs · results · heartbeats</text>
  </g>
  <path d="M780 622C780 606 780 606 780 602" class="solidWhite"/>

  <!-- Worker fleet -->
  <g>
    <rect x="82" y="832" width="1430" height="138" rx="30" fill="#ffffff" stroke="#0891b2" stroke-width="2.8"/>
    <rect x="82" y="832" width="1430" height="54" rx="30" fill="#cffafe"/>
    <rect x="82" y="858" width="1430" height="28" fill="#cffafe"/>
    <text x="118" y="872" class="section">Cross-language worker fleets</text>
    <text x="118" y="898" class="small">A single logical worker cluster can mix languages. Dispatch matches namespace/app/cluster/region, domain master, tags, and typed capabilities.</text>

    <g>
      <rect x="118" y="920" width="120" height="42" rx="16" fill="#fff" stroke="#bfdbfe"/>
      <text x="151" y="946" class="mono">Java</text>
      <rect x="252" y="920" width="120" height="42" rx="16" fill="#fff" stroke="#bfdbfe"/>
      <text x="286" y="946" class="mono">Rust</text>
      <rect x="386" y="920" width="120" height="42" rx="16" fill="#fff" stroke="#bfdbfe"/>
      <text x="426" y="946" class="mono">Go</text>
      <rect x="520" y="920" width="120" height="42" rx="16" fill="#fff" stroke="#bfdbfe"/>
      <text x="551" y="946" class="mono">Python</text>
      <rect x="654" y="920" width="120" height="42" rx="16" fill="#fff" stroke="#bfdbfe"/>
      <text x="683" y="946" class="mono">Node.js</text>
      <rect x="800" y="920" width="168" height="42" rx="16" fill="#fff" stroke="#c4b5fd"/>
      <text x="825" y="946" class="mono">SDK processors</text>
      <rect x="982" y="920" width="162" height="42" rx="16" fill="#fff" stroke="#c4b5fd"/>
      <text x="1010" y="946" class="mono">Plugins</text>
      <rect x="1158" y="920" width="318" height="42" rx="16" fill="#0f172a"/>
      <text x="1190" y="946" class="mono white">SRT · Deno · Wasmtime · WasmEdge · V8</text>
    </g>
  </g>
  <path d="M780 832C780 790 780 720 780 678" class="dashCyan"/>
  <path d="M310 832C310 782 420 732 560 678" class="dashBlue"/>
  <path d="M1240 832C1240 782 1130 732 1000 678" class="dashCyan"/>

  <!-- Security invariant -->
  <g>
    <rect x="82" y="986" width="1430" height="1" fill="#93c5fd"/>
    <text x="82" y="1013" class="small">Invariant: scheduling decisions stay centralized; execution stays near business code; Worker connectivity is outbound; ownership is fenced; logs are task-scoped; capabilities are structured.</text>
  </g>
</svg>
